Coordinates
version=1
nRows=14
nColumns=40
inDegrees=yes

Units are S.I. units (second, meters, Newtons, ...)
If the header above contains a line with 'inDegrees', this indicates whether rotational values are in degrees (yes) or radians (no).

endheader
time	pelvis_tilt	pelvis_list	pelvis_rotation	pelvis_tx	pelvis_ty	pelvis_tz	hip_flexion_r	hip_adduction_r	hip_rotation_r	knee_angle_r	knee_angle_r_beta	ankle_angle_r	subtalar_angle_r	mtp_angle_r	hip_flexion_l	hip_adduction_l	hip_rotation_l	knee_angle_l	knee_angle_l_beta	ankle_angle_l	subtalar_angle_l	mtp_angle_l	lumbar_extension	lumbar_bending	lumbar_rotation	arm_flex_r	arm_add_r	arm_rot_r	elbow_flex_r	pro_sup_r	wrist_flex_r	wrist_dev_r	arm_flex_l	arm_add_l	arm_rot_l	elbow_flex_l	pro_sup_l	wrist_flex_l	wrist_dev_l
      2.75000000	    -46.54761516	     -2.97331831	      1.84351027	     -0.39063848	      0.59286654	     -0.90193743	    110.36518190	    -24.78613938	     -6.16257997	     95.56243230	      1.66787908	     28.94882004	      0.00000000	      0.00000000	    113.56502880	    -21.51837481	     -0.18783679	     96.32790743	      1.68123915	     29.55298512	      0.00000000	      0.00000000	    -10.97930389	      3.12477683	     -5.32220158	    -41.36650424	    -31.06431992	     -1.44057902	    118.40153767	     87.90244077	      0.00000000	      0.00000000	    -45.46590808	    -28.94479476	     -2.64054292	    113.98010504	     88.12326177	      0.00000000	      0.00000000
      2.75500000	    -46.48777055	     -2.99819414	      1.90662322	     -0.39045253	      0.59304061	     -0.90201923	    110.27884538	    -24.88026747	     -6.19531145	     95.58718539	      1.66831111	     28.96623522	      0.00000000	      0.00000000	    113.47679263	    -21.45057710	     -0.18645827	     96.29771609	      1.68071221	     29.61701777	      0.00000000	      0.00000000	    -11.04730711	      3.17737764	     -5.37075747	    -41.34481084	    -31.07809406	     -1.43497040	    118.38361499	     87.86985637	      0.00000000	      0.00000000	    -45.41103120	    -28.95754771	     -2.59131553	    113.91844146	     88.13653608	      0.00000000	      0.00000000
      2.76000000	    -46.69220645	     -2.83937347	      1.75919662	     -0.39100209	      0.59289765	     -0.90160054	    110.55545231	    -24.63227689	     -6.06609329	     95.46803995	      1.66623163	     28.98461629	      0.00000000	      0.00000000	    113.61025325	    -21.57438193	     -0.24741178	     96.22171357	      1.67938571	     29.67193487	      0.00000000	      0.00000000	    -10.81994278	      2.95108584	     -5.29575487	    -41.22296881	    -31.19944189	     -1.17715478	    118.30933348	     87.75523488	      0.00000000	      0.00000000	    -45.41515239	    -29.13122048	     -2.41755645	    113.88838212	     88.18148130	      0.00000000	      0.00000000
      2.76500000	    -46.63802462	     -2.86409528	      1.76772242	     -0.39090577	      0.59295863	     -0.90161685	    110.48643630	    -24.63513127	     -6.06171276	     95.49301905	      1.66666760	     28.94242838	      0.00000000	      0.00000000	    113.55265940	    -21.59738172	     -0.27556870	     96.22420439	      1.67942919	     29.80968814	      0.00000000	      0.00000000	    -10.91420888	      2.99739703	     -5.29111178	    -41.29910674	    -31.12279539	     -1.36593600	    118.37471009	     87.84095931	      0.00000000	      0.00000000	    -45.46279818	    -29.00274852	     -2.63717725	    113.94603190	     88.15542081	      0.00000000	      0.00000000
      2.77000000	    -46.61716493	     -2.84457452	      1.81350146	     -0.39086474	      0.59302783	     -0.90165485	    110.49419084	    -24.68431229	     -6.03336446	     95.51430706	      1.66703914	     28.87378345	      0.00000000	      0.00000000	    113.54224236	    -21.54962518	     -0.27727607	     96.24996127	      1.67987873	     29.55855925	      0.00000000	      0.00000000	    -10.94224026	      2.99625799	     -5.29932045	    -41.33492155	    -31.09182862	     -1.42267230	    118.41198696	     87.83008188	      0.00000000	      0.00000000	    -45.40699457	    -29.06065195	     -2.58906472	    113.95211488	     88.17451494	      0.00000000	      0.00000000
      2.77500000	    -46.55781447	     -2.88031554	      1.76847094	     -0.39061744	      0.59316468	     -0.90144099	    110.37131966	    -24.64937007	     -6.12350688	     95.50880897	      1.66694318	     28.90485048	      0.00000000	      0.00000000	    113.48696818	    -21.63723421	     -0.26430321	     96.25090704	      1.67989524	     29.57797013	      0.00000000	      0.00000000	    -11.00422524	      3.03207541	     -5.22173201	    -41.33695524	    -31.03598898	     -1.41226133	    118.36706060	     87.67185209	      0.00000000	      0.00000000	    -45.33680449	    -29.10315320	     -2.50762813	    113.85543763	     88.23496752	      0.00000000	      0.00000000
      2.78000000	    -46.47170936	     -2.90214083	      1.88075442	     -0.39043428	      0.59331698	     -0.90168926	    110.27606595	    -24.79937365	     -6.12775374	     95.55013192	      1.66766440	     28.93661865	      0.00000000	      0.00000000	    113.37846715	    -21.50725866	     -0.26940122	     96.26011420	      1.68005593	     29.62117232	      0.00000000	      0.00000000	    -11.09395903	      3.09288523	     -5.40583336	    -41.16281163	    -31.20109005	     -1.26382532	    118.32883980	     87.90780518	      0.00000000	      0.00000000	    -45.39706729	    -29.00776637	     -2.59228473	    113.88818838	     88.13590733	      0.00000000	      0.00000000
      2.78500000	    -46.38169765	     -2.88765187	      1.96169931	     -0.39014584	      0.59351998	     -0.90188104	    110.17636332	    -24.90864065	     -6.10185518	     95.56799529	      1.66797618	     28.97882945	      0.00000000	      0.00000000	    113.23687106	    -21.43467421	     -0.32728562	     96.25959338	      1.68004684	     29.64750626	      0.00000000	      0.00000000	    -11.19428381	      3.10383985	     -5.49389767	    -41.11625984	    -31.18819341	     -1.27552867	    118.29113479	     87.89650457	      0.00000000	      0.00000000	    -45.37170703	    -28.97606426	     -2.59493931	    113.84753040	     88.12215343	      0.00000000	      0.00000000
      2.79000000	    -46.29721165	     -2.87672784	      1.95237851	     -0.38989592	      0.59371081	     -0.90184182	    110.07975629	    -24.90722942	     -6.10298135	     95.58568652	      1.66828495	     28.90104203	      0.00000000	      0.00000000	    113.12648581	    -21.47265326	     -0.35350919	     96.27229824	      1.68026858	     29.66429972	      0.00000000	      0.00000000	    -11.28158081	      3.09901898	     -5.43085347	    -41.12288707	    -31.16949699	     -1.28669959	    118.26927316	     87.94146844	      0.00000000	      0.00000000	    -45.26903018	    -29.07451010	     -2.47138673	    113.81400040	     88.09356536	      0.00000000	      0.00000000
      2.79500000	    -46.18978692	     -2.92379442	      2.02490088	     -0.38960089	      0.59393242	     -0.90198828	    109.91926671	    -25.03087942	     -6.18113489	     95.61505707	      1.66879756	     28.97246045	      0.00000000	      0.00000000	    113.01564783	    -21.39956234	     -0.33014340	     96.28567443	      1.68050204	     29.65069190	      0.00000000	      0.00000000	    -11.39637105	      3.17713477	     -5.54175384	    -41.01190005	    -31.23202097	     -1.19551415	    118.22421414	     87.88920833	      0.00000000	      0.00000000	    -45.28395162	    -28.99212971	     -2.51156982	    113.78385455	     88.12467785	      0.00000000	      0.00000000
      2.80000000	    -46.23381515	     -2.92644781	      2.02621141	     -0.38968287	      0.59390531	     -0.90198553	    109.94981931	    -25.02780981	     -6.18504804	     95.58065126	      1.66819707	     29.04168916	      0.00000000	      0.00000000	    113.04443519	    -21.37075120	     -0.30777267	     96.25399821	      1.67994919	     29.72050500	      0.00000000	      0.00000000	    -11.35619946	      3.18654208	     -5.56431468	    -40.99666239	    -31.24955129	     -1.20464931	    118.23469531	     87.90627204	      0.00000000	      0.00000000	    -45.31981686	    -28.94692423	     -2.58215064	    113.80818639	     88.10707301	      0.00000000	      0.00000000
      2.80500000	    -46.25280211	     -2.96153782	      2.06589789	     -0.38975165	      0.59397577	     -0.90199775	    109.95715504	    -25.06191073	     -6.19517289	     95.57786816	      1.66814849	     28.99356998	      0.00000000	      0.00000000	    113.05405603	    -21.32755644	     -0.31992438	     96.20849632	      1.67915503	     29.73117958	      0.00000000	      0.00000000	    -11.34257532	      3.22605801	     -5.60233077	    -40.96775197	    -31.25455649	     -1.18829793	    118.23286259	     87.87340433	      0.00000000	      0.00000000	    -45.32295431	    -28.95488999	     -2.57750479	    113.85360771	     88.13464801	      0.00000000	      0.00000000
      2.81000000	    -46.26842236	     -2.96518560	      2.02685887	     -0.38976633	      0.59400088	     -0.90185884	    109.95571435	    -25.00179909	     -6.21884434	     95.55897085	      1.66781867	     28.99123166	      0.00000000	      0.00000000	    113.10026237	    -21.38195329	     -0.29102552	     96.22786741	      1.67949312	     29.57873860	      0.00000000	      0.00000000	    -11.33481077	      3.21692721	     -5.60798266	    -40.90918165	    -31.27064559	     -1.13819632	    118.22808146	     87.89416245	      0.00000000	      0.00000000	    -45.38951699	    -28.88620254	     -2.68626765	    113.89029418	     88.12223372	      0.00000000	      0.00000000
      2.81500000	    -46.25032044	     -2.93611442	      1.91560816	     -0.38969258	      0.59412282	     -0.90153988	    109.91570757	    -24.85314292	     -6.23310245	     95.54041915	      1.66749488	     28.99294960	      0.00000000	      0.00000000	    113.07373573	    -21.52315776	     -0.27403550	     96.22808779	      1.67949696	     29.60859281	      0.00000000	      0.00000000	    -11.36839665	      3.17668253	     -5.32412141	    -41.12066690	    -31.05603738	     -1.37899344	    118.28290318	     87.89492571	      0.00000000	      0.00000000	    -45.17154488	    -29.11939727	     -2.45430075	    113.85108301	     88.13041741	      0.00000000	      0.00000000
